<svg xmlns="http://www.w3.org/2000/svg" viewBox="0 0 1000 1000" preserveAspectRatio="xMidYMid meet">
    <defs>
        <linearGradient id="seasonsGradient" x1="0" y1="1" x2="0" y2="0">
            <stop offset="0.05" stop-color="#0000B3" />
            <stop offset="0.25" stop-color="#00E6AC" />
            <stop offset="0.75" stop-color="#ACE600" />
            <stop offset="0.95" stop-color="#FF1A1A" />
        </linearGradient>
        <radialGradient id="sunGradient">
            <stop offset="0.65" stop-color="#FFFF00" />
            <stop offset="1" stop-color="#FFFF00" stop-opacity="0" />
        </radialGradient>
    </defs>
    <g fill="none" stroke="black" stroke-width="5">
        <circle cx="500" cy="500" r="496" fill="white" />
        <line x1="500" y1="980" x2="500" y2="996" />
        <line x1="500" y1="980" x2="500" y2="996" transform="rotate(30 500 500)" />
        <line x1="500" y1="980" x2="500" y2="996" transform="rotate(60 500 500)" />
        <line x1="500" y1="980" x2="500" y2="996" transform="rotate(90 500 500)" />
        <line x1="500" y1="980" x2="500" y2="996" transform="rotate(120 500 500)" />
        <line x1="500" y1="980" x2="500" y2="996" transform="rotate(150 500 500)" />
        <line x1="500" y1="980" x2="500" y2="996" transform="rotate(180 500 500)" />
        <line x1="500" y1="980" x2="500" y2="996" transform="rotate(210 500 500)" />
        <line x1="500" y1="980" x2="500" y2="996" transform="rotate(240 500 500)" />
        <line x1="500" y1="980" x2="500" y2="996" transform="rotate(270 500 500)" />
        <line x1="500" y1="980" x2="500" y2="996" transform="rotate(300 500 500)" />
        <line x1="500" y1="980" x2="500" y2="996" transform="rotate(330 500 500)" />
        <circle cx="500" cy="500" r="140" />
    </g>
    <circle cx="500" cy="500" r="380" fill="none" stroke="url(#seasonsGradient)" stroke-width="20"
            transform="rotate(30 500 500)" />
    <circle cx="500" cy="230" r="60" fill="url(#sunGradient)" />
    <g id="pointer">
        <!-- ecuatorR = r * cos(23) -->
        <path d="M 360,500 a 140,128.9 0 0 1 280,0" stroke="black" stroke-width="5" fill="none" />
        <line x1="500" y1="320" x2="500" y2="360" stroke="black" stroke-width="5" />
        <!-- y = 500 + r * cos(90 - 23) -->
        <line x1="500" y1="554.7" x2="500" y2="980" stroke="black" stroke-width="10" />
    </g>
</svg>