<svg xmlns="http://www.w3.org/2000/svg" version="1.1" baseProfile="full" viewBox="0 0 1000 1000" preserveAspectRatio="xMidYMid meet">
    <defs>
        <radialGradient id="sunGradient">
            <stop offset="0.65" stop-color="#FFFF00" />
            <stop offset="1" stop-color="#FFFF00" stop-opacity="0" />
        </radialGradient>
    </defs>
    <g fill="none" stroke="black" stroke-width="5">
        <circle cx="500" cy="500" r="496" fill="white" />
        <line x1="500" y1="980" x2="500" y2="996" />
        <line x1="500" y1="980" x2="500" y2="996" transform="rotate(15 500 500)" />
        <line x1="500" y1="980" x2="500" y2="996" transform="rotate(30 500 500)" />
        <line x1="500" y1="980" x2="500" y2="996" transform="rotate(45 500 500)" />
        <line x1="500" y1="980" x2="500" y2="996" transform="rotate(60 500 500)" />
        <line x1="500" y1="980" x2="500" y2="996" transform="rotate(75 500 500)" />
        <line x1="500" y1="980" x2="500" y2="996" transform="rotate(90 500 500)" />
        <line x1="500" y1="980" x2="500" y2="996" transform="rotate(105 500 500)" />
        <line x1="500" y1="980" x2="500" y2="996" transform="rotate(120 500 500)" />
        <line x1="500" y1="980" x2="500" y2="996" transform="rotate(135 500 500)" />
        <line x1="500" y1="980" x2="500" y2="996" transform="rotate(150 500 500)" />
        <line x1="500" y1="980" x2="500" y2="996" transform="rotate(165 500 500)" />
        <line x1="500" y1="980" x2="500" y2="996" transform="rotate(180 500 500)" />
        <line x1="500" y1="980" x2="500" y2="996" transform="rotate(195 500 500)" />
        <line x1="500" y1="980" x2="500" y2="996" transform="rotate(210 500 500)" />
        <line x1="500" y1="980" x2="500" y2="996" transform="rotate(225 500 500)" />
        <line x1="500" y1="980" x2="500" y2="996" transform="rotate(240 500 500)" />
        <line x1="500" y1="980" x2="500" y2="996" transform="rotate(255 500 500)" />
        <line x1="500" y1="980" x2="500" y2="996" transform="rotate(270 500 500)" />
        <line x1="500" y1="980" x2="500" y2="996" transform="rotate(285 500 500)" />
        <line x1="500" y1="980" x2="500" y2="996" transform="rotate(300 500 500)" />
        <line x1="500" y1="980" x2="500" y2="996" transform="rotate(315 500 500)" />
        <line x1="500" y1="980" x2="500" y2="996" transform="rotate(330 500 500)" />
        <line x1="500" y1="980" x2="500" y2="996" transform="rotate(345 500 500)" />
    </g>
    <g id="face" fill="none" stroke="black" stroke-width="5">
        <!-- africa -->
        <path d="M 359.5,176.7 c -3.3,2.2 -8.8,6.9 -12.1,10.4 -3.4,3.5 -8.7,8.6 -11.8,11.3 -7.1,6.1 -13,15.9 -15.5,25.6 -1.1,4.4 -2.1,13.4 -2.5,21.6 -0.6,10.6 -1.3,16 -3.2,22 -3.6,11.9 -3.4,13.1 3.4,19.5 3.1,3 7.3,6.6 9.2,8 l 3.5,2.7 0.3,10.3 c 0.3,9.5 0.1,11.2 -2.8,19.9 -4.1,12.3 -5.4,26.6 -2.4,27.6 1.1,0.3 2.7,1 3.6,1.5 1.3,0.7 2,0.3 3,-1.8 1.4,-2.9 12.2,-9.8 17.7,-11.3 2,-0.5 7.6,-1 12.4,-1 8.3,0 9.3,0.2 15,3.4 3.4,1.9 8.9,4.2 12.1,5 3.2,0.9 8.4,2.5 11.5,3.7 3.4,1.3 9,2.3 14.2,2.6 l 8.6,0.6 8.9,-4.6 c 12.5,-6.3 19.1,-8 29.5,-7.4 4.6,0.2 10.2,1.1 12.4,2 3,1.2 7.5,1.6 18.1,1.7 l 14.1,0 8.4,-5.1 c 4.6,-2.9 9.7,-5.8 11.2,-6.6 2.9,-1.6 14.2,-9.1 22.9,-15.3 5.1,-3.6 5.8,-5.1 8.3,-16.8 3.9,-18.6 1.8,-21.9 -21.9,-35.1 -8.3,-4.7 -11,-5.1 -34.1,-5.1 -20.3,0 -22.3,-0.2 -25.5,-2 -1.9,-1.1 -6.3,-3.3 -9.7,-4.9 -4,-2 -6.7,-3.9 -7.6,-5.8 -2.4,-4.5 -6.7,-8 -14.5,-11.8 l -7.2,-3.5 0,-10.4 c 0,-8.1 -0.4,-11.4 -2,-15 -2.2,-5.2 -9,-13.1 -13.2,-15.2 -1.6,-0.8 -5.4,-4.1 -8.6,-7.3 -6.8,-6.8 -10.1,-8.9 -20.7,-13.1 -6.3,-2.5 -10,-3.3 -17.5,-3.7 l -9.5,-0.5 -6,3.9 Z" />
        <!-- america -->
        <path d="M 695.9,288.7 c -6,6.3 -10.1,11.8 -12.8,17.2 -2.2,4.2 -2.3,5.2 -1.9,26 l 0.4,21.6 3.8,9 c 2.1,4.9 4.6,10.3 5.6,12 1,1.6 3.4,8 5.4,14.2 2,6.2 4.6,12.9 5.7,15 1.2,2.1 2.8,4.9 3.6,6.3 0.8,1.6 1.3,5.9 1.3,11.6 0,10.8 1.2,14.1 7.3,21 5.8,6.4 7.7,10.3 7.7,15.6 0,6.2 -3.4,16.2 -8.3,24.3 -7.4,12.4 -10.4,19.6 -15.2,36.2 -0.8,2.6 -5.5,4.3 -14.9,5.5 l -9.8,1.2 -3.9,-4.4 c -5,-5.8 -5.7,-8.7 -6.1,-24.9 l -0.3,-13.4 2.9,-1.6 c 3.6,-2 5.1,-4.3 4.3,-6.5 -0.5,-1.3 -2.1,-1.6 -8.1,-1.6 -6.9,0 -7.6,-0.2 -9.3,-2.6 -5.9,-8.3 -5.6,-8.2 -15.1,-8.6 -8.7,-0.3 -8.7,-0.3 -14.4,-5 -11.6,-9.5 -22.4,-13.8 -35.1,-13.8 -3.7,0 -3.9,0.2 -6.5,5.7 -2.3,4.9 -2.8,7.4 -3,16.4 -0.4,11.9 -0.4,11.9 7.5,14.9 l 4.8,1.8 0.3,7.4 c 0.3,9 -0.4,9.9 -8.4,10.6 -4.9,0.4 -5.8,0.2 -8.2,-2.1 -3.5,-3.3 -9.2,-5.7 -13.7,-5.7 -3.2,0 -3.8,0.4 -5,3.4 -0.8,1.9 -2.2,8.1 -3,13.7 -1.9,12.5 -3.7,16 -12.6,23.5 -12.3,10.5 -16.9,18.9 -16.9,31.4 l 0,8.1 4.3,1.9 c 6.5,3 9.1,2.6 11.6,-1.5 3.1,-5.3 7.1,-6.5 25,-7.6 8.6,-0.6 19.3,-1.3 23.8,-1.6 l 8.3,-0.5 5.5,4.9 c 6.2,5.6 10.8,7.1 24.1,8 l 8,0.6 7,-5 c 7.1,-5.1 16.6,-9.3 20.8,-9.3 1.3,0 2.8,-0.6 3.5,-1.3 0.6,-0.8 3.6,-2.7 6.8,-4.3 8.7,-4.4 18.6,-14.2 23.3,-23.2 2.1,-4.1 4.2,-8.9 4.6,-10.6 3,-14 8.7,-27.7 16.2,-39.4 4.4,-6.8 8.2,-17.8 8.2,-23.9 0,-2.1 0.7,-4.9 1.6,-6.1 1.4,-2 2.3,-2.2 11.9,-2.2 5.8,0 10.7,0.4 11,1 0.3,0.5 3.1,1 6.1,1 5.3,0 5.5,-0.1 6.9,-3.5 0.8,-1.9 2.4,-3.9 3.5,-4.5 1.1,-0.6 2,-1.7 2,-2.4 0,-0.8 2,-3.6 4.5,-6.4 5.5,-6.1 6.1,-7.7 7,-18.5 0.4,-4.8 1.1,-9 1.6,-9.3 0.5,-0.3 0.9,-1.8 0.9,-3.3 0,-3.9 1.4,-4.8 12.2,-7.8 9.1,-2.5 10.1,-2.6 42.8,-2.8 l 33.5,-0.3 0.9,-2.8 c 0.4,-1.6 1.7,-5.2 2.7,-7.9 2.3,-6.2 2.8,-28.8 0.7,-30.2 -0.7,-0.4 -6.9,-1 -13.8,-1.3 l -12.5,-0.5 -11.5,-5.8 c -6.3,-3.2 -12.6,-6.9 -14,-8.1 -1.4,-1.3 -4.7,-3.8 -7.3,-5.7 -2.7,-1.8 -6.4,-5.5 -8.3,-8.1 -7.1,-9.6 -14.7,-13.8 -29.3,-16.2 -9.2,-1.5 -9.6,-1.6 -14.5,-6.4 -2.8,-2.7 -6.2,-5.5 -7.5,-6.2 -1.3,-0.7 -7.5,-1.9 -13.8,-2.6 -9.5,-1.2 -12.7,-2 -18.2,-4.9 -6.1,-3.2 -7.5,-3.5 -15.2,-3.5 l -8.5,0 -4.5,4.7 Z" />
        <!-- asia -->
        <path d="M 348.3 357.5 c -1.1,0.8 -4.2,2.5 -6.8,3.9 l -4.8,2.4 0.2,9.7 c 0.2,9.4 0.4,9.9 3.8,14.9 3.3,4.7 3.5,5.5 3.1,11.3 -0.3,4.7 -0.9,6.8 -2.6,8.6 -1.3,1.3 -3.9,5.7 -6,9.7 -3.3,6.6 -4.3,7.6 -9.6,10.5 -3.3,1.8 -7.7,4.7 -9.9,6.5 -2.1,1.8 -7.5,4.8 -12,6.7 -6.7,2.8 -10.2,3.6 -19.2,4.4 -11.2,0.9 -18.3,2.2 -21.6,4 -1.5,0.8 -1.9,2.1 -1.9,6.3 0,6.5 1.6,8.3 12,12.7 15.3,6.4 20.7,9.3 26.9,14.2 l 6.3,5.1 -0.6,7.5 c -0.4,4.2 -1.2,10.2 -1.9,13.5 -1.1,5.4 -1.5,6.1 -7.1,10.4 -4.6,3.6 -6.5,5.8 -8.7,10.8 -2.5,5.6 -2.9,7.9 -3.5,20.2 -0.6,12.2 -0.5,14.1 1.1,16.5 1.5,2.3 2.4,2.7 6.6,2.7 2.7,0 6.7,-0.7 8.9,-1.6 5,-2 13.7,-1.5 17.4,1 1.5,0.9 3.7,4.1 5,7.1 2,4.3 3.3,5.8 6.7,7.6 4,2 5.5,2.1 24.8,2 11.3,-0.1 26.7,0.3 34.1,0.9 7.4,0.6 18.2,1.2 24,1.3 9.7,0.2 10.8,0 15,-2.4 2.5,-1.5 6.2,-4.4 8.3,-6.4 3.7,-3.6 4.1,-3.7 9.5,-3.3 3.7,0.3 8.3,1.8 13.3,4.2 7.4,3.5 8.1,3.6 18.5,3.6 l 10.9,-0.1 4.3,-3.8 4.2,-3.9 0,-11.9 c 0,-13.7 0.4,-13 -10,-18.1 -4.5,-2.2 -9.5,-6.1 -16.1,-12.5 l -9.6,-9.2 -0.6,-11 c -0.3,-7 -1.3,-13.4 -2.6,-17.5 -2.9,-8.9 -2.9,-25.2 -0.1,-34.1 3,-9.7 5.2,-12.6 10.2,-13.9 14.1,-3.6 19.9,-8.8 24.1,-21.8 1.5,-4.6 2.7,-9.1 2.7,-10.1 0,-1.8 3.9,-6.1 5.6,-6.1 0.6,0 2,-1 3.2,-2.3 1.8,-1.9 2.2,-3.5 2.2,-8.8 0,-8.8 1.3,-11 7.5,-12.4 12.3,-3 12.6,-3.4 12.3,-17.6 l -0.3,-11.4 -7,0 c -6.2,0.1 -7.5,0.4 -11.5,3.2 -2.5,1.7 -5.4,4 -6.4,5.2 -1,1.1 -4.4,2.8 -7.5,3.7 -3.1,0.9 -8.5,3.1 -12.2,5 -6.1,3.2 -7.2,3.4 -16.2,3.4 -10,0 -15,1.2 -17.6,4.3 -3,3.7 -15.3,0.9 -17.2,-4 -0.8,-2.2 -1.3,-2.3 -11.4,-2.3 l -10.5,0 -12.8,-6.4 c -20.7,-10.3 -29.8,-13.6 -37.9,-13.6 -4.4,0 -7.6,0.5 -9,1.5 Z" />
        <!-- australia -->
        <path d="M 221.4 649.7 c -0.8,1.6 -3.5,6.4 -6,10.7 -4.4,7.9 -4.4,8 -4.4,17.8 0,7.1 0.5,10.8 1.6,13.1 2,3.9 9.3,11.7 11.1,11.7 0.7,0 2.3,1.9 3.7,4.2 1.4,2.4 5.4,6.9 9,10 4.5,4 7.7,8.1 10.6,13.4 3,5.4 5.6,8.5 8.9,10.9 2.6,1.9 5.6,5.1 6.8,7.2 1.2,2.1 4.9,6.5 8.2,9.8 3.4,3.3 6.1,6.5 6.1,7.2 0,1.8 15.2,12.8 23.5,17 3.9,1.9 9.3,5.5 12.2,7.9 l 5.1,4.4 8.9,0 c 10.5,0 11.3,-0.5 16.3,-11.1 5.4,-11.7 6.5,-24.3 2.5,-30.1 -1.4,-2 -2.5,-4 -2.5,-4.3 0,-1.5 -8.3,-11.5 -11.8,-14.3 -2.1,-1.7 -6.7,-6.6 -10.1,-10.9 -3.4,-4.3 -9.6,-10.7 -13.8,-14.3 -4.1,-3.6 -8.7,-8.1 -10.2,-10.1 -3.1,-4.1 -14.9,-14.9 -16.4,-14.9 -1.3,0 -9.5,-6.5 -12.5,-9.9 -1.3,-1.4 -3.5,-4.4 -4.9,-6.5 -3.2,-4.9 -6.5,-8 -13,-12.2 -3.2,-2.1 -5.3,-4.2 -5.5,-5.6 -0.4,-2.8 -3.1,-3.6 -13.6,-3.7 -8.1,-0.1 -8.3,0 -9.8,2.6 Z" />
    </g>
    <g fill="white" fill-opacity="0.8">
        <circle cx="500" cy="935" r="40" />
        <circle cx="500" cy="935" r="40" transform="rotate(45 500 500)" />
        <circle cx="500" cy="935" r="40" transform="rotate(90 500 500)" />
        <circle cx="500" cy="935" r="40" transform="rotate(135 500 500)" />
        <circle cx="500" cy="935" r="40" transform="rotate(180 500 500)" />
        <circle cx="500" cy="935" r="40" transform="rotate(225 500 500)" />
        <circle cx="500" cy="935" r="40" transform="rotate(270 500 500)" />
        <circle cx="500" cy="935" r="40" transform="rotate(315 500 500)" />
    </g>
    <g fill="black" text-anchor="middle" font-size="60" font-family="sans-serif">
        <!-- r = 435, from center to bottom 21
        y = 500 + 21 - 435 * sin(-45 * n - 90)
        x = 500 + 435 * cos(-45 * n - 90) -->
        <text x="500" y="956">0</text>
        <text x="192.4" y="828.6">3</text>
        <text x="65" y="521">6</text>
        <text x="192.4" y="213.4">9</text>
        <text x="500" y="86">12</text>
        <text x="807.6" y="213.4">15</text>
        <text x="935" y="521">18</text>
        <text x="807.6" y="828.6">21</text>
    </g>
    <g id="pointer">
        <circle cx="500" cy="735" r="60" fill="url(#sunGradient)" />
        <line x1="500" y1="530" x2="500" y2="980" stroke="black" stroke-width="10" />
    </g>
</svg>