<svg xmlns="http://www.w3.org/2000/svg" version="1.1" baseProfile="full" viewBox="0 0 1000 1000" preserveAspectRatio="xMidYMid meet">
    <defs>
        <radialGradient id="sunGradient">
            <stop offset="0.65" stop-color="#FFFF00" />
            <stop offset="1" stop-color="#FFFF00" stop-opacity="0" />
        </radialGradient>
    </defs>
    <g fill="none" stroke="black" stroke-width="5">
        <circle cx="500" cy="500" r="496" fill="white" />
        <line x1="500" y1="980" x2="500" y2="996" />
        <line x1="500" y1="980" x2="500" y2="996" transform="rotate(45 500 500)" />
        <line x1="500" y1="980" x2="500" y2="996" transform="rotate(90 500 500)" />
        <line x1="500" y1="980" x2="500" y2="996" transform="rotate(135 500 500)" />
        <line x1="500" y1="980" x2="500" y2="996" transform="rotate(180 500 500)" />
        <line x1="500" y1="980" x2="500" y2="996" transform="rotate(225 500 500)" />
        <line x1="500" y1="980" x2="500" y2="996" transform="rotate(270 500 500)" />
        <line x1="500" y1="980" x2="500" y2="996" transform="rotate(315 500 500)" />
    </g>
    <circle cx="500" cy="500" r="60" fill="gray" />
    <circle cx="500" cy="330" r="70" fill="lightskyblue" />
    <path d="m 431.08203,342.26562 c 0,0 0.1669,0.92966 0.26279,1.39202 0.12227,0.58949 0.25052,1.24444 0.39145,1.86323 0.1177,0.51678 0.27023,1.10571 0.37917,1.54416 0.41194,1.65802 0.88158,3.30193 1.415,4.92494 0.64004,1.94744 0.86683,2.49711 1.47921,4.0171 0.11433,0.28378 0.24964,0.60137 0.3954,0.9682 0.2625,0.66061 0.95606,2.25643 1.48365,3.36189 0.33333,0.69844 0.69705,1.38212 1.06174,2.06472 0.8295,1.55259 1.63717,3.11997 2.56142,4.6181 0.66855,1.08365 1.4203,2.11397 2.15419,3.15449 0.46337,0.65698 0.93072,1.31158 1.41977,1.94968 0.44105,0.57548 0.8864,1.15654 1.34347,1.72383 0.46953,0.58275 0.97716,1.17017 1.43672,1.72522 0.54805,0.66193 1.71133,1.92821 1.71133,1.92821 0,0 1.36111,-2.11479 1.17266,-3.25141 -0.0873,-0.52641 -1,-1.25 -1,-1.25 v -2.75 l -3.25,-5.25 1,-6 -2.5,-3.5 -1.25,-3.5 0.5,-1.75 -0.247,-2.025 -1.59,-1.59 -2.298,-2.298 v -2.828 l -0.707,-2.651 1.414,-1.944 c 0,0 1.84448,0.73279 2.651,0.353 0.50273,-0.23674 0.72991,-0.87982 0.883,-1.414 0.40581,-1.416 0,-4.419 0,-4.419 l 2.474,0.53 2.298,1.95 v 2.29 c 0,0 0.34755,3.06839 0.177,4.59 -0.10186,0.9088 -0.59065,1.74333 -0.71,2.65 -0.21535,1.63589 -0.68275,3.44788 0,4.95 0.5181,1.13988 1.80417,3.18794 2.83,2.47 1.34348,-0.94025 -0.92032,-3.18749 -1.77,-4.59 -0.32431,-0.53532 -1.08159,-0.80448 -1.24,-1.41 -0.50286,-1.92211 1.24,-5.83 1.24,-5.83 l -0.707,-6.01 v -3.54 l -1.59,-0.53 -1.77,-0.88 1.59,-3.36 1.95,-1.77 h 1.95 l 1.94,1.77 h 0.88 l 0.88,3.18 -1.24,2.65 1.77,2.83 -0.71,2.47 c 0,0 -2.01101,-0.46812 -2.83,0 -0.57963,0.3313 -1.01647,1.72581 -1.01647,1.72581 0,0 0.48897,1.14352 1.01647,1.28419 1.22427,0.32649 3.53,-1.41 3.53,-1.41 h 1.59 c 0,0 1.80646,3.01628 3.35,3.35 0.98154,0.21221 1.83314,-1.24587 2.82,-1.06 0.77939,0.1468 1.12997,1.12165 1.77,1.59 0.93932,0.68736 2.19228,0.94168 3.01,1.77 0.66604,0.67466 1.03661,1.59859 1.41,2.47 0.24257,0.5661 -0.0264,1.50589 0.53,1.77 0.6912,0.32811 1.69516,-0.24366 2.12,-0.88 0.29429,-0.44079 -0.17233,-1.0888 0,-1.59 0.21854,-0.6356 0.5711,-1.52431 1.24,-1.59 1.16187,-0.11411 2.30976,1.17322 2.65,2.29 0.19537,0.64126 0.067,1.63504 -0.53,1.94 -0.44714,0.22842 -1.06446,-0.8943 -1.41,-0.53 -0.70819,0.74665 0.20982,2.77353 1.23744,2.82842 0.47439,0.0253 0.58517,-0.77827 0.7071,-1.23743 0.19662,-0.74037 -0.44791,-1.67666 0,-2.2981 0.43582,-0.60466 1.70074,-0.0917 2.12132,-0.70711 0.66572,-0.97404 -0.87938,-2.58722 -0.17677,-3.535 0.65478,-0.88326 2.80353,0.22552 3.2,-0.8 0.30337,-0.78469 -1.32041,-1.26248 -1.4,-2.1 -0.13001,-1.36821 2.21464,-2.57073 1.6,-3.8 -0.30732,-0.61464 -1.31364,-0.53367 -2,-0.5 -0.98988,0.0486 -2.8,1 -2.8,1 l -3,-2 1.9,-0.8 c 0,0 -1.24,-3.9 1.5,-3.8 2.8,0 3,-0.5 3,-0.5 0,0 3.18584,1.81345 2.6,3 -0.6815,1.38032 -4.05733,-1.71625 -4.60971,-0.27938 -0.62888,1.63587 2.37439,3.52481 4.10971,3.27938 0.9707,-0.13729 0.76829,-2.09499 1.7,-2.4 1.00178,-0.32795 2.92528,-0.0514 3,1 0.10039,1.41261 -2.98923,0.73888 -3.8,1.9 -1.30686,1.87158 -1.78536,8.84724 -0.76517,6.8052 0.60928,-1.21953 1.81727,-2.87252 2.14159,-4.34709 0.25261,-1.14849 -0.48285,-2.36259 0.47713,-2.0517 2.82653,0.91536 -4.58609,10.28992 -2.1007,8.66206 2.39121,-1.56618 3.75353,-3.57929 4.43117,-5.8651 0.17582,-0.59306 -1.01347,-1.78155 -0.68402,-2.30337 0.77694,-1.23062 1.43157,-2.85456 2.8,-3.35 0.61946,-0.22428 1.61215,-0.21526 1.94455,0.35355 0.409,0.69989 -0.618,1.50714 -0.7955,2.2981 -0.29852,1.33019 0.0956,2.81302 -0.44194,4.06587 -0.39563,0.92218 -1.08784,1.77559 -1.94454,2.29809 -0.67118,0.40936 -1.70675,0.0123 -2.2981,0.53033 -0.7574,0.6635 -1.15762,1.82619 -1.06066,2.82843 0.098,1.01289 0.59419,2.44539 1.6,2.6 1.15606,0.17771 1.57453,-1.84217 2.65165,-2.2981 1.25279,-0.53028 2.7117,-0.22341 4.06586,-0.35355 1.12061,-0.10769 2.48687,0.35861 3.35876,-0.35355 1.81862,-1.48544 0.90271,-4.71031 2.12132,-6.71752 0.51896,-0.8548 2.27218,-1.13277 2.12132,-2.12132 -0.21075,-1.38093 -2.40679,-1.44755 -3.71231,-1.94454 -1.1353,-0.43219 -2.37389,-0.52853 -3.53553,-0.88389 -0.65954,-0.20176 -2.03023,-0.0227 -1.94455,-0.7071 0.14713,-1.17522 3.0388,0.72163 3.53554,-0.35356 0.39076,-0.84579 -0.73022,-1.94155 -1.59099,-2.29809 -0.60866,-0.25212 -1.34332,0.62291 -1.94455,0.35355 -1.13439,-0.50822 -1.99686,-1.94005 -1.94454,-3.18198 0.0461,-1.09511 2.02812,-1.55876 1.94454,-2.65165 -0.0611,-0.79905 -0.89954,-1.73864 -1.7,-1.7 -0.73324,0.0354 -0.70117,1.92476 -1.4,1.7 -0.95409,-0.30686 -0.60084,-2.08143 -0.2,-3 0.63504,-1.45528 2.34066,-2.17944 3.7,-3 1.08666,-0.65596 2.25663,-1.24479 3.5,-1.5 0.6204,-0.12734 1.43041,0.42497 1.9,0 0.74515,-0.67435 0.75651,-2.10468 0.3,-3 -0.21035,-0.41255 -1.04643,-0.26312 -1.2,-0.7 -0.0973,-0.27686 0.0701,-0.62255 0.31562,-0.82188 0.0196,-0.0159 0.15686,-0.0995 0.17735,-0.11053 0.14913,-0.0802 0.20329,0.0306 0.38393,0.0515 0.0697,0.008 0.14078,-0.0213 0.2125,-0.015 0.15579,0.0136 0.30371,-0.0214 0.4726,-0.0471 0.17349,-0.0264 0.20357,-0.0463 0.48496,-0.10774 0.15104,-0.033 0.21202,-0.0298 0.3337,-0.0664 0.27876,-0.0838 0.64446,-0.21491 0.80059,-0.0986 0.46133,0.34393 -0.31818,1.2535 0.0188,1.71562 0.621,0.85174 2.07914,0.48703 3,1 1.59204,0.88686 3.12888,2.02562 4.2,3.5 0.63303,0.87136 1.2,3 1.2,3 0,0 2.65165,-2.65165 3.0052,-0.17678 0.35355,2.47488 0.35355,2.65165 0.35355,2.65165 0,0 -1.27151,3.31918 -0.88388,4.94975 0.27257,1.14656 2.12132,2.82843 2.12132,2.82843 l -0.88388,-1.94455 1.85615,2.82843 v 0.0329 l -2.12132,2.61872 -0.79549,2.56326 0.97227,2.47488 2.12132,0.26516 0.0884,-3.09359 1.76776,0.35355 -0.97227,2.82843 c 0,0 -0.47164,2.27924 -1,3.3 -0.15442,0.29833 -0.30997,0.66312 -0.61871,0.79549 -1.08856,0.46672 -2.38534,-0.63607 -3.53554,-0.35355 -1.19831,0.29433 -2.2817,1.10374 -3.09359,2.03293 -0.51592,0.59045 -0.74821,1.38454 -1.01647,2.12132 -0.37466,1.02903 -0.3339,2.19947 -0.81758,3.18198 -0.35923,0.72971 -1.31965,1.12996 -1.50261,1.92245 -0.15924,0.68973 -0.19959,1.77792 0.44194,2.07713 0.96754,0.45126 1.83564,-1.8952 2.82843,-1.50261 0.57185,0.22613 0.59662,1.74567 0.59662,1.74567 0,0 1.11898,0.28028 1.41421,-0.0884 0.55945,-0.69863 -0.18438,-1.78884 -0.42233,-2.65165 -0.15738,-0.57066 -0.64276,-1.05731 -0.65913,-1.64905 -0.0312,-1.12866 0.42913,-2.28842 1.08146,-3.21 0.30319,-0.42833 0.81099,-1.27223 1.24,-0.97 0.68335,0.48141 -0.69854,1.54912 -0.79,2.38 -0.0938,0.85257 -0.0625,1.7652 0.26,2.56 0.26852,0.66185 1.07906,1.01129 1.33,1.68 0.21808,0.58115 0.25546,1.26173 0.09,1.86 -0.19822,0.7167 0.70711,1.32582 -1.23743,1.85615 -1.94455,0.53033 -2.12132,0.53033 -2.12132,0.53033 0,0 -0.40163,-0.66144 -0.6509,-0.95527 -0.25383,-0.2992 -0.47335,-0.91639 -0.85172,-0.8125 -0.7376,0.20253 -0.61871,2.20971 -0.61871,2.20971 l -1.67938,1.67938 -1.325,0.9375 -0.48298,-1.3776 -1.16421,-1.3151 -2.0634,-1.57712 0.24375,-0.76905 0.90802,-1.1729 -0.89891,-0.0375 -0.25772,0.74334 c 0,0 0.27757,0.15705 0.60815,0.35891 0.30358,0.18536 1.66643,0.008 1.66643,0.008 l -1.74894,1.62085 0.27928,1.37102 -1.50261,0.0884 -0.35355,-0.88388 -1.23744,0.44194 v 1.76777 l 1.94455,0.17678 v -1.14905 h 0.88388 l 0.54965,0.70972 -0.54965,0.83707 -0.79549,1.10486 v 0.88388 l 3.35,-0.7 0.62119,-1.13028 c 0,0 1.92062,1.43834 0.32963,2.32223 l -1.59099,0.38388 c 0,0 -0.67444,0.41234 -0.68121,0.75 -0.0105,0.52591 1.01332,1.20971 1.01332,1.20971 l -0.26516,1.5026 c 0,0 -3.4562,-1.34696 -4.77298,-0.44194 -0.80713,0.55474 -0.79549,2.82842 -0.79549,2.82842 l -0.53033,1.85616 2.20971,1.32583 4.15,-1.14905 0.0884,-2.2 1.85,-0.53 0.6,-1.23744 3,-1.06 1.3625,-0.225 0.6075,0.625 0.7125,2.13 2.99,0.7525 -0.26,0.83 -0.66,0.2 0.8775,0.8125 0.9875,-1.2625 -0.385,-1.23 1.685,1.0375 -1.105,-1.5675 -2.2175,-0.89 -2.225,-2.2525 0.04,-0.97 0.97,0.13 c 0,0 0.88213,0.68109 1.41,0.75 0.50911,0.0665 0.99963,-0.46507 1.5,-0.35 0.77371,0.17792 1.29738,0.93 1.85,1.5 0.4752,0.49014 0.63166,1.32019 1.24,1.63 0.54964,0.27992 1.46517,0.52204 1.85,0.04 0.45446,-0.56926 -0.90051,-1.49285 -0.53,-2.12 0.34017,-0.5758 1.5248,-0.22319 2.24355,-0.29371 0.30555,-0.03 0.41169,-0.17484 0.52062,-0.43744 0.18689,-0.45053 -0.64542,-0.78605 -0.73437,-1.26562 -0.17092,-0.9215 -0.0903,-2.00698 0.44508,-2.7762 1.34946,-0.79689 3.17117,-0.4317 4.09867,-0.79613 0.85397,-0.33555 0.8153,-1.43094 1.965,-1.45777 0,0 1.13655,0.68425 1.71469,0.53033 1.44032,-0.38346 3.42533,-1.82807 3.04939,-3.27037 -0.20681,-0.79343 -2.17708,0.0518 -2.34229,-0.7513 -0.10231,-0.49734 0.65932,-0.86591 1.14905,-1 0.70786,-0.19381 1.45318,0.22109 2.16552,0.39774 1.04915,0.26017 2.30881,0.22895 3.09359,0.97227 0.36553,0.34621 0.71169,0.94456 0.53033,1.41422 -0.26256,0.67994 -1.22282,1.10175 -1.94455,1 -0.68108,-0.096 -0.94232,-1.01524 -1.5026,-1.41422 -0.28447,-0.20258 -0.58434,-0.54779 -0.92808,-0.48613 -1.44757,0.25966 -1.99923,2.15859 -2.95313,3.27795 -0.18364,0.2155 0.11898,0.99362 -0.0489,1.22306 -0.22277,0.30448 -0.90172,0.46518 -1.17561,0.7224 -0.42085,0.39525 -1.57421,-0.20913 -2.21108,0.0781 -0.62699,0.28279 -0.71786,1.21267 -1.2124,1.70396 -0.67522,0.67082 -1.55679,1.29595 -2.33738,1.64009 0.49452,0.58912 -0.4945,0.12414 -0.68099,0.2437 0.21382,0.39194 0.35284,0.85503 -0.49652,0.40064 -0.13327,0.1068 0.0556,0.56085 -0.19251,0.76987 0.14432,0.94488 1.5643,1.32482 2.51907,1.37002 0.84799,0.0401 1.63663,-0.52803 2.34229,-1 0.87455,-0.58493 1.229,-2.44752 2.2539,-2.2097 1.2935,0.30014 1.37521,2.42955 1.32583,3.7565 -0.0245,0.65917 -0.32824,1.34636 -0.7955,1.81196 -1.30857,1.30391 -3.31022,1.68801 -5.08233,2.20971 -0.87354,0.25717 -1.81599,0.20729 -2.69584,0.44194 -0.72969,0.19461 -1.69117,0.17479 -2.12132,0.7955 -0.26851,0.38746 0.33333,1.08088 0,1.41421 -1.0312,1.0312 -3.05822,0.62675 -4.375,0 -0.77561,-0.36917 -1.02369,-1.38658 -1.625,-2 -0.35122,-0.3583 -0.66037,-0.85855 -1.14905,-0.97227 -2.24802,-0.52313 -4.50549,1.02043 -6.71751,1.67938 -0.93681,0.27907 -1.82649,1.21571 -2.77037,0.96155 -0.5956,-0.16038 -0.59241,-1.35155 -1.20711,-1.4025 -0.68797,-0.057 -1.0325,0.92005 -1.59099,1.32582 -0.7605,0.55255 -1.93214,0.67964 -2.38648,1.5026 -0.356,0.64483 0.49934,1.66824 0,2.20971 -0.74145,0.80401 -3.27037,0.26517 -3.27037,0.26517 0,0 -4.59619,1.06066 -4.59619,3.977 0,0 0.32722,1.88732 0,2.74004 -0.42603,1.11021 -2.09478,1.49884 -2.38649,2.65165 -0.21536,0.85108 0.61872,2.56 0.61872,2.56 l 3.27,3 5.25932,1.08136 8.1,-1.12416 c 0,0 2.74138,-0.35522 5.83497,0.9706 3.09359,1.32583 4.35502,-0.22415 5.7419,1.14939 0.75326,0.74601 0.65437,3.11242 0.65437,3.11242 0,0 0.52096,-0.10532 1.25768,-0.26472 1.27275,-0.27538 3.22442,-0.71216 4.40213,-1.04614 2.05422,-0.58255 4.07105,-1.29547 6.07114,-2.04302 1.07371,-0.40131 2.12078,-0.85403 3.17955,-1.30978 1.58853,-0.68381 3.10344,-1.41982 4.38791,-2.12093 0.47334,-0.25836 1.14813,-0.62658 1.90214,-1.04981 0.54089,-0.30361 1.12221,-0.63613 1.69813,-0.97861 0.7465,-0.44393 1.46184,-0.92116 2.11861,-1.33611 0.28937,-0.18283 0.5671,-0.38345 0.85028,-0.57572 0.3607,-0.2449 0.72775,-0.48079 1.08116,-0.73609 1.54241,-1.11421 2.88188,-2.10465 4.5324,-3.47014 1.04734,-0.86647 2.19002,-1.88765 3.24674,-2.87361 0.15747,-0.14693 0.23666,-0.24625 0.46066,-0.45303 0.18348,-0.16937 0.36375,-0.34221 0.5427,-0.51636 0.26844,-0.26123 0.55032,-0.54648 0.79644,-0.7927 0.33594,-0.33608 0.98696,-1.02868 0.98696,-1.02868 0,0 -0.45302,-2.56949 -0.9245,-3.7768 -0.41015,-1.05025 -0.51313,-2.85029 -1.63519,-2.961 -1.72692,-0.17039 -2.09239,2.79104 -3.35875,3.97747 -0.57114,0.53509 -1.13184,1.19558 -1.88869,1.39482 -1.5968,0.42036 -3.28241,-0.36724 -4.91722,-0.59933 -1.0934,-0.15523 -2.22411,-0.17681 -3.27036,-0.53033 -1.13871,-0.38476 -2.07838,-1.21924 -3.18,-1.7 -0.93717,-0.40899 -2.58881,-0.026 -2.9,-1 -0.17453,-0.54628 0.47165,-1.17698 1,-1.4 3.8163,-0.18487 7.14936,2.39948 10.6,2.8 0.95958,0.13026 2.42246,-0.12603 3.33033,-0.46297 2.09775,-3.87345 3.03157,-5.84563 3.58223,-9.36203 0.77437,-4.08324 0.0997,-1.50968 0.45787,-2.6894 -0.82559,-0.0465 -2.80438,-1.36423 -3.98204,-0.70799 -0.50994,0.28415 -0.34328,1.12874 -0.64645,1.6276 -0.7677,1.08264 -0.23446,1.81562 -1.35355,1.94487 -1.0002,-0.0218 -2.75806,-0.51532 -4.15426,-0.61872 -0.29382,-0.0218 -0.71536,0.24168 -0.88388,0 -0.34122,-0.48936 0.15637,-1.30237 0.61872,-1.67937 0.45745,-0.373 1.18697,-0.0905 1.75076,-0.26517 0.96919,-0.30032 2.10325,-0.53588 2.74004,-1.32583 0.46901,-0.58181 0.006,-1.64263 0.5259,-2.17937 0.38248,-0.39481 1.13443,-0.12989 1.59,-0.4375 1.701,-1.14854 2.25683,-3.47092 3.73376,-4.89613 1.68827,-1.62914 3.61812,-3.07606 5.74524,-4.06587 3.17473,-1.47729 9.15884,0.70239 10.16466,-2.65165 0.40339,-1.34515 -2.65239,-1.73676 -2.81867,-3.13122 -0.10375,-0.87008 0.49737,-1.86378 1.25,-2.3125 0.50104,-0.29872 1.22704,0.25843 1.75,0 0.79942,-0.39505 1.95277,-1.29572 1.625,-2.125 -0.27948,-0.70712 -1.54387,-0.65697 -2.25,-0.375 -1.67166,0.66752 -1.45,4.31139 -3.25,4.3125 -1.17501,7.2e-4 -1.30657,-1.9694 -2.125,-2.8125 -1.13539,-1.16961 -3.8125,-3.0625 -3.8125,-3.0625 L 552.25,332.625 c 0,0 0.27341,-3.51099 1.25,-4.875 0.7535,-1.05242 1.98896,-1.83325 3.25,-2.125 0.65456,-0.15144 1.55239,0.75103 2,0.25 0.82816,-0.92698 -1.55432,-2.58401 -0.875,-3.625 0.90225,-1.38262 3.46437,-0.0172 4.875,-0.875 1.1678,-0.71013 2.5,-3.25 2.5,-3.25 l 1.625,-1.75 c 0,0 0.42477,2.03525 0.375,3.0625 -0.0558,1.15109 -0.54329,2.13545 -0.75,3.375 -0.13435,0.80564 1.10069,-1.225 1.5,-1.9375 0.46077,-0.82216 1.00351,-2.64334 1.00351,-2.64334 0,0 -0.072,-0.43321 -0.11087,-0.64931 -0.0444,-0.24687 -0.091,-0.49338 -0.13992,-0.73939 -0.0579,-0.29118 -0.11381,-0.61663 -0.17667,-0.92376 -0.0906,-0.44254 -0.18831,-0.88362 -0.28887,-1.324 -0.078,-0.34168 -0.16062,-0.68231 -0.24398,-1.02273 -0.0374,-0.15271 -0.10664,-0.44552 -0.16236,-0.66769 -0.0321,-0.12796 -0.0779,-0.31711 -0.11922,-0.47507 -0.0227,-0.0867 -0.0706,-0.25942 -0.0706,-0.25942 0,0 -1.20952,1.22095 -1.816,1.82971 -0.49906,0.50094 -1.09159,0.92276 -1.5,1.5 -0.61355,0.86719 -0.64545,2.10284 -1.375,2.875 -0.65315,0.69131 -1.58913,1.64854 -2.5,1.375 -0.85682,-0.25731 -1.28004,-1.48088 -1.25,-2.375 0.0427,-1.27131 1.99285,-1.97799 2,-3.25 0.008,-1.45771 -1.22193,-2.71653 -2.25,-3.75 -0.48129,-0.48381 -1.09268,-1.24592 -1.75,-1.0625 -1.56173,0.4358 -1.03568,3.2381 -2.25,4.3125 -0.53324,0.4718 -1.3018,0.88949 -2,0.75 -0.89611,-0.17903 -2.22028,-0.98813 -2,-1.875 0.22903,-0.92213 2.5978,0.18788 2.75,-0.75 0.16845,-1.03804 -1.6185,-1.44526 -2.625,-1.75 -0.59818,-0.18112 -1.37938,0.38077 -1.875,0 -0.51294,-0.39408 -0.5,-1.875 -0.5,-1.875 0,0 -2.68456,-2.4192 -4.375,-2.75 -0.70589,-0.13813 -1.88453,1.05289 -2.125,0.375 -0.28684,-0.8086 1.71654,-0.57804 2.25,-1.25 0.37721,-0.47515 0.11256,-1.28316 0.5,-1.75 0.23801,-0.28678 0.68123,-0.30694 1,-0.5 0.79133,-0.47927 1.3826,-1.30326 2.25,-1.625 0.92137,-0.34176 2.48751,-0.47192 2.9375,-0.25 1.24391,0.61344 0.48171,-0.30521 0.6875,-0.5 0.52696,-0.49879 1.06682,-1.03061 1.375,-1.6875 0.45987,-0.98022 -0.38569,-2.79916 0.625,-3.1875 1.36131,-0.52305 3.5,2.625 3.5,2.625 0,0 -0.0479,1.77112 0.375,2.5 1.01231,1.7449 4.75,3.75 4.75,3.75 l 3.92187,4.01562 c 0,0 -0.31561,-0.92306 -0.48009,-1.38224 -0.17537,-0.48959 -0.35271,-0.97856 -0.54029,-1.4636 -0.31132,-0.80498 -0.63679,-1.60453 -0.97102,-2.40027 -0.29661,-0.70617 -0.59593,-1.41153 -0.91779,-2.10656 -0.29561,-0.63836 -0.61216,-1.26691 -0.93025,-1.89437 -0.13517,-0.26663 -0.32791,-0.67154 -0.5014,-1.00243 -0.0648,-0.12352 -0.1648,-0.30194 -0.24735,-0.45284 -0.0215,-0.0393 -0.0646,-0.11788 -0.0646,-0.11788 L 559.625,298.5 557.25,297.25 c 0,0 -3.09404,-1.13157 -3.625,-2.5 -0.40217,-1.03652 1.44216,-2.37992 0.75,-3.25 -0.36315,-0.4565 -1.22424,-0.25269 -1.75,0 -0.72139,0.34672 -1.53576,1.07541 -1.5,1.875 0.0619,1.38368 3.12981,1.63858 2.875,3 -0.12688,0.67793 -1.28747,0.51374 -1.875,0.875 -0.47395,0.29142 -0.96245,0.59874 -1.3125,1.0312 -0.38689,0.47798 0.0723,0.72094 -0.8125,1.65625 -1.00696,1.06446 -5.53212,1.15845 -6.67433,2.0789 -0.4256,0.34296 0.29226,1.83022 -0.0757,2.2336 -0.44397,0.48674 -0.47945,1.49349 -1.125,1.625 -0.9175,0.18691 -1.44202,-1.57926 -2.375,-1.5 -1.11711,0.0949 -2.04388,1.22584 -2.5,2.25 -0.27123,0.609 0.58259,1.67592 0,2 -0.62141,0.34568 -1.20321,-1.49162 -1.8125,-1.125 -0.78726,0.47372 1.00282,2.32639 0.1875,2.75 -0.99898,0.51903 -2.46816,-1.01021 -2.625,-2.125 -0.0709,-0.50365 0.60815,-0.81702 0.875,-1.25 0.32278,-0.52372 0.38441,-1.25379 0.875,-1.625 0.4595,-0.34769 1.26168,0.0132 1.6875,-0.37495 0.4528,-0.4128 0.99809,-1.31907 0.5625,-1.75 -0.70252,-0.695 -1.99419,0.38348 -2.8125,0.9375 -0.88134,0.5967 -1.09696,1.98968 -2.0625,2.4375 -1.13397,0.52594 -2.52553,0.25133 -3.75,0 -1.24337,-0.25521 -2.23093,-1.47606 -3.5,-1.5 -1.74074,-0.0328 -4.875,1.875 -4.875,1.875 l -1,0.875 1.875,-3.375 2.25,-1.75 c 0,0 0.90507,0.63044 1.375,0.5 1.08476,-0.30109 1.19464,-1.99113 2.125,-2.625 0.6861,-0.46745 1.55807,-0.89788 2.375,-0.75 1.19746,0.21677 1.72454,1.85334 2.875,2.25 0.94538,0.32596 2.16795,0.5547 3,0 0.45069,-0.30046 0.85586,-1.00999 0.625,-1.5 -0.42693,-0.9062 -1.93742,-0.52229 -2.875,-0.875 -1.32652,-0.49903 -2.48379,-1.4794 -3.875,-1.75 -1.02332,-0.19904 -2.23524,-0.41827 -3.125,0.125 -0.93953,0.57366 -1.625,2.875 -1.625,2.875 0,0 -2.58781,-1.01844 -3.125,-0.125 -0.29828,0.49608 0.875,1.5 0.875,1.5 l -0.125,1.5 -1.5,1.625 c 0,0 -0.88083,-0.91842 -1.375,-0.75 -1.0772,0.36713 -1.0906,2.02307 -1.375,3.125 -0.11501,0.44562 -0.3915,0.99979 -0.125,1.375 0.39792,0.56025 2,0.5 2,0.5 l 0.25,1.5 -4.625,0.375 c 0,0 -1.38937,-2.14901 -2.5,-2.625 -0.42127,-0.18054 -0.95153,-0.17539 -1.37497,0 -0.59884,0.24805 -1.375,1.375 -1.375,1.375 L 507,309.75 c 0,0 0.27266,-1.45961 0.8125,-1.875 0.885,-0.68099 2.27965,-0.0755 3.3125,-0.5 1.14471,-0.47044 2.41982,-1.0943 3,-2.1875 0.55703,-1.04958 1.20835,-3.07439 0.125,-3.5625 -1.09982,-0.49553 -1.71463,1.69968 -2.625,2.49112 -1.16528,1.01305 -2.95424,1.49311 -3.625,2.88388 -0.21721,0.45036 0.36993,1.16362 0,1.5 -0.65031,0.59132 -1.74703,-0.20829 -2.625,-0.25 -1.04049,-0.0494 -2.2572,-0.57619 -3.125,0 -0.7156,0.47514 -0.39086,1.76936 -1,2.375 -0.78065,0.77616 -2.00281,0.96723 -3.08497,1.16162 -0.0817,0.0147 -0.16277,0.005 -0.24315,0.0181 -0.10383,0.0169 -0.19046,0.0542 -0.30465,0.0783 -0.68325,0.1442 -1.55202,0.40562 -2.06837,0.19038 -0.15018,-0.0626 -0.20619,-0.16553 -0.29886,-0.32339 -0.4717,-0.80347 1.10398,-1.57982 1.25,-2.5 0.13207,-0.83224 0.31891,-2.02193 -0.375,-2.5 -1.12394,-0.77434 -2.64304,0.72832 -4,0.875 -0.28998,0.0313 -0.65156,0.18746 -0.875,0 -0.55103,-0.4623 -0.62211,-1.4495 -0.375,-2.125 0.559,-1.5281 3.75,-3.125 3.75,-3.125 0,0 3.31254,-0.42037 5,-1.125 1.68168,-0.70222 -5.375,1 -5.375,1 0,0 -3.40918,2.23934 -4.21875,4 -0.43571,0.94759 -0.0169,2.09139 -0.15625,3.125 -0.0885,0.65642 -0.0225,1.41781 -0.43,1.94 -0.48605,0.62288 -1.36625,0.82318 -2.12,1.06 -1.36269,0.42814 -2.81212,0.5829 -4.24,0.62 -2.21889,0.0577 -4.41059,-0.58762 -6.63,-0.62 -0.88505,-0.0129 -1.7994,0.41489 -2.65,0.17 -1.50065,-0.43205 -2.40304,-2.04205 -3.8,-2.74 -1.76461,-0.88164 -3.72995,-2.21224 -5.65,-1.76 -0.99362,0.23403 -1.28336,1.69175 -2.21,2.12 -0.7786,0.35983 -2.56,0.26 -2.56,0.26 h -3.27 l -3.53,1.68 -1.41,1.68 1.85,-0.62 3.5,-1.24 2.74,0.26 -1.23,1.23 -3.97,0.53 -3,1.9 v 1.4 l -3.6,-0.35 -2.1,3.7 -2.65,3.1 0.35,3.6 -1.5,2.03 -0.88,3.53 -2.83,3.36 -0.88,4.07 1.33,2.92 -1.06,1.68 -3.36,-0.09 z" fill="green" />
    <g fill="black" text-anchor="middle" font-size="60" font-family="sans-serif">
        <!-- r = 435, from center to bottom 21
        y = 500 + 21 - 435 * sin(-45 * n - 90)
        x = 500 + 435 * cos(-45 * n - 90) -->
        <text x="500" y="956">0</text>
        <text x="192.4" y="828.6">1</text>
        <text x="65" y="521">2</text>
        <text x="192.4" y="213.4">3</text>
        <text x="500" y="86">4</text>
        <text x="807.6" y="213.4">5</text>
        <text x="935" y="521">6</text>
        <text x="807.6" y="828.6">7</text>
    </g>
    <g id="pointer">
        <circle cx="500" cy="840" r="60" fill="url(#sunGradient)" />
        <path d="M 440,500 a 60,60 0 0 1 120,0 Z" fill="black" />
        <line x1="500" y1="750" x2="500" y2="980" stroke="black" stroke-width="10" />
    </g>
</svg>