<svg xmlns="http://www.w3.org/2000/svg" version="1.1" baseProfile="full" viewBox="0 0 1000 1000" preserveAspectRatio="xMidYMid meet">
    <g fill="none" stroke="black" stroke-width="5">
        <circle cx="500" cy="500" r="496" fill="white" />
        <line x1="500" y1="980" x2="500" y2="996" />
        <line x1="500" y1="980" x2="500" y2="996" transform="rotate(22.5 500 500)" />
        <line x1="500" y1="980" x2="500" y2="996" transform="rotate(45 500 500)" />
        <line x1="500" y1="980" x2="500" y2="996" transform="rotate(67.5 500 500)" />
        <line x1="500" y1="980" x2="500" y2="996" transform="rotate(90 500 500)" />
        <line x1="500" y1="980" x2="500" y2="996" transform="rotate(112.5 500 500)" />
        <line x1="500" y1="980" x2="500" y2="996" transform="rotate(135 500 500)" />
        <line x1="500" y1="980" x2="500" y2="996" transform="rotate(157.5 500 500)" />
        <line x1="500" y1="980" x2="500" y2="996" transform="rotate(180 500 500)" />
        <line x1="500" y1="980" x2="500" y2="996" transform="rotate(202.5 500 500)" />
        <line x1="500" y1="980" x2="500" y2="996" transform="rotate(225 500 500)" />
        <line x1="500" y1="980" x2="500" y2="996" transform="rotate(247.5 500 500)" />
        <line x1="500" y1="980" x2="500" y2="996" transform="rotate(270 500 500)" />
        <line x1="500" y1="980" x2="500" y2="996" transform="rotate(292.5 500 500)" />
        <line x1="500" y1="980" x2="500" y2="996" transform="rotate(315 500 500)" />
        <line x1="500" y1="980" x2="500" y2="996" transform="rotate(337.5 500 500)" />
    </g>
    <g fill="black" text-anchor="middle" font-size="60" font-family="sans-serif">
        <!-- r = 435, from center to bottom 21
        y = 500 + 21 - 435 * sin(-22.5 * n - 90)
        x = 500 + 435 * cos(-22.5 * n - 90) -->
        <text x="500" y="956">0</text>
        <text x="333.5" y="922.9">1</text>
        <text x="192.4" y="828.6">2</text>
        <text x="98.1" y="687.5">3</text>
        <text x="65" y="521">4</text>
        <text x="98.1" y="354.5">5</text>
        <text x="192.4" y="213.4">6</text>
        <text x="333.5" y="119.1">7</text>
        <text x="500" y="86">8</text>
        <text x="666.5" y="119.1">9</text>
        <text x="807.6" y="213.4">A</text>
        <text x="901.9" y="354.5">B</text>
        <text x="935" y="521">C</text>
        <text x="901.9" y="687.5">D</text>
        <text x="807.6" y="828.6">E</text>
        <text x="666.5" y="922.9">F</text>
    </g>
    <text id="generation" x="500" y="541" fill="black" text-anchor="middle" font-size="120" font-family="sans-serif"></text>
    <line id="pointer" x1="500" y1="600" x2="500" y2="980" stroke="black" stroke-width="10" />
</svg>